<svg width="28" height="28" viewBox="0 0 28 28" fill="none" xmlns="http://www.w3.org/2000/svg">
<path fill-rule="evenodd" clip-rule="evenodd" d="M6.70719 0.292485C7.09819 0.682466 7.09819 1.32236 6.70719 1.71234L1.70719 6.71208C1.31719 7.10206 0.68325 7.10206 0.29325 6.71208C-0.09775 6.3221 -0.09775 5.68221 0.29325 5.29223L5.29325 0.292485C5.68325 -0.0974951 6.31719 -0.0974951 6.70719 0.292485ZM21.2932 0.292485C21.6832 -0.0974951 22.3172 -0.0974951 22.7072 0.292485L27.7072 5.29223C28.0982 5.68221 28.0982 6.3221 27.7072 6.71208C27.3172 7.10206 26.6832 7.10206 26.2932 6.71208L21.2932 1.71234C20.9022 1.32236 20.9022 0.682466 21.2932 0.292485ZM14.0002 4.00226C8.47722 4.00226 4.00022 8.48203 4.00022 14.0018C4.00022 19.5215 8.47722 24.0013 14.0002 24.0013C19.5232 24.0013 24.0002 19.5215 24.0002 14.0018C24.0002 8.48203 19.5232 4.00226 14.0002 4.00226ZM2.00022 14.0018C2.00022 7.37209 7.37322 2.00236 14.0002 2.00236C20.6272 2.00236 26.0002 7.37209 26.0002 14.0018C26.0002 18.0016 24.0382 21.5514 21.0232 23.7312L22.8322 26.4511C23.1382 26.9011 23.0142 27.531 22.5552 27.831C22.0952 28.141 21.4742 28.0111 21.1682 27.5511L19.3082 24.7712C17.7082 25.5612 15.9062 26.0012 14.0002 26.0012C12.0942 26.0012 10.2922 25.5612 8.69224 24.7712L6.83219 27.5511C6.52619 28.0111 5.90523 28.141 5.44523 27.831C4.98623 27.531 4.86225 26.9011 5.16825 26.4511L6.97721 23.7312C3.96221 21.5514 2.00022 18.0016 2.00022 14.0018ZM18.7072 10.792C19.0982 11.1819 19.0982 11.8218 18.7072 12.2118L13.7072 17.2116C13.3372 17.5815 12.7442 17.6016 12.3472 17.2616L9.34721 14.6718C8.92921 14.3118 8.88222 13.6818 9.24222 13.2618C9.60322 12.8518 10.2342 12.8018 10.6532 13.1618L12.9492 15.1417L17.2932 10.792C17.6832 10.402 18.3172 10.402 18.7072 10.792Z" fill="#4F4C4C"/>
</svg>
