<svg width="45" height="45" viewBox="0 0 45 45" fill="none" xmlns="http://www.w3.org/2000/svg">
<path fill-rule="evenodd" clip-rule="evenodd" d="M45 30.4722V8.01901C45 3.59252 41.4 0 36.9643 0H8.03571C3.6 0 0 3.59252 0 8.01901V41.7952C0 44.3933 2.9572 45.9169 5.07863 44.3933L13.3713 38.4912H36.9643C41.4 38.4912 45 34.8987 45 30.4722ZM41.7857 8.01901V30.4722C41.7857 33.1346 39.6321 35.2836 36.9643 35.2836H12.3429L3.21429 41.7952V8.01901C3.21429 5.3567 5.36786 3.2076 8.03571 3.2076H36.9643C39.6321 3.2076 41.7857 5.3567 41.7857 8.01901Z" fill="#5D80FF"/>
</svg>
