<svg width="28" height="28" viewBox="0 0 28 28" fill="none" xmlns="http://www.w3.org/2000/svg">
<path d="M13.36 15.77C13.132 15.58 13 15.3 13 15V6C13 5.45 13.448 5 14 5C14.552 5 15 5.45 15 6V14.53L20.64 19.23C21.064 19.59 21.122 20.22 20.768 20.64C20.415 21.06 19.784 21.12 19.36 20.77L13.36 15.77Z" fill="#4F4C4C"/>
<path fill-rule="evenodd" clip-rule="evenodd" d="M14 0C6.268 0 0 6.27 0 14C0 21.73 6.268 28 14 28C21.732 28 28 21.73 28 14C28 6.27 21.732 0 14 0ZM2 14C2 7.37 7.373 2 14 2C20.627 2 26 7.37 26 14C26 20.63 20.627 26 14 26C7.373 26 2 20.63 2 14Z" fill="#4F4C4C"/>
</svg>
