<svg width="28" height="29" viewBox="0 0 28 29" fill="none" xmlns="http://www.w3.org/2000/svg">
<path d="M18.768 16.0845C19.122 15.6645 19.064 15.0344 18.64 14.6744C18.216 14.3244 17.585 14.3844 17.232 14.8044L12.8821 20.0244L10.653 18.1045C10.234 17.7445 9.60304 17.7944 9.24204 18.2044C8.88204 18.6244 8.92902 19.2545 9.34702 19.6145L12.347 22.2045C12.551 22.3745 12.815 22.4644 13.082 22.4444C13.35 22.4144 13.597 22.2945 13.768 22.0845L18.768 16.0845Z" fill="#4F4C4C"/>
<path fill-rule="evenodd" clip-rule="evenodd" d="M9 1.44446C9 0.894458 8.552 0.444458 8 0.444458C7.448 0.444458 7 0.894458 7 1.44446V2.44446H5C2.239 2.44446 0 4.68446 0 7.44446V23.4445C0 26.2045 2.239 28.4445 5 28.4445H23C25.761 28.4445 28 26.2045 28 23.4445V7.44446C28 4.68446 25.761 2.44446 23 2.44446H21V1.44446C21 0.894458 20.552 0.444458 20 0.444458C19.448 0.444458 19 0.894458 19 1.44446V2.44446H9V1.44446ZM5 4.44446H7V5.44446C7 5.99446 7.448 6.44446 8 6.44446C8.552 6.44446 9 5.99446 9 5.44446V4.44446H19V5.44446C19 5.99446 19.448 6.44446 20 6.44446C20.552 6.44446 21 5.99446 21 5.44446V4.44446H23C24.657 4.44446 26 5.78446 26 7.44446V9.44446H2V7.44446C2 5.78446 3.343 4.44446 5 4.44446ZM2 11.4445H26V23.4445C26 25.1045 24.657 26.4445 23 26.4445H5C3.343 26.4445 2 25.1045 2 23.4445V11.4445Z" fill="#4F4C4C"/>
</svg>
